<svg xmlns="http://www.w3.org/2000/svg" width="512" height="512" viewBox="0 0 128 128">
  <defs><linearGradient id="g" x1="0" y1="0" x2="1" y2="1"><stop offset="0" stop-color="#06b6d4"/><stop offset="1" stop-color="#4f46e5"/></linearGradient></defs>
  <rect rx="22" ry="22" width="128" height="128" fill="url(#g)"/>
  <g transform="translate(12,20)">
    <path d="M12 42c10-12 38-18 60-10 5 2 10 8 10 12s-5 10-10 12c-22 8-50 2-60-10 0 0-6 6-10 6 3-4 3-12 0-16 4 0 10 6 10 6z" fill="#fff"/>
    <circle cx="72" cy="50" r="4" fill="#0f172a"/>
  </g>
  <g opacity=".85">
    <circle cx="38" cy="34" r="8" fill="#ffffffaa"/>
    <circle cx="32" cy="42" r="6" fill="#ffffff88"/>
    <circle cx="26" cy="48" r="4" fill="#ffffff66"/>
  </g>
</svg>
